%TF.GenerationSoftware,KiCad,Pcbnew,7.0.9*%
%TF.CreationDate,2023-12-22T17:01:32-08:00*%
%TF.ProjectId,Blinker5,426c696e-6b65-4723-952e-6b696361645f,n/c*%
%TF.SameCoordinates,Original*%
%TF.FileFunction,Copper,L2,Bot*%
%TF.FilePolarity,Positive*%
%FSLAX46Y46*%
G04 Gerber Fmt 4.6, Leading zero omitted, Abs format (unit mm)*
G04 Created by KiCad (PCBNEW 7.0.9) date 2023-12-22 17:01:32*
%MOMM*%
%LPD*%
G01*
G04 APERTURE LIST*
%TA.AperFunction,ComponentPad*%
%ADD10R,1.700000X1.700000*%
%TD*%
%TA.AperFunction,ComponentPad*%
%ADD11O,1.700000X1.700000*%
%TD*%
%TA.AperFunction,ComponentPad*%
%ADD12R,1.200000X1.200000*%
%TD*%
%TA.AperFunction,ComponentPad*%
%ADD13C,1.200000*%
%TD*%
%TA.AperFunction,ViaPad*%
%ADD14C,0.800000*%
%TD*%
%TA.AperFunction,Conductor*%
%ADD15C,0.500000*%
%TD*%
%TA.AperFunction,Conductor*%
%ADD16C,1.000000*%
%TD*%
%TA.AperFunction,Conductor*%
%ADD17C,2.000000*%
%TD*%
%TA.AperFunction,Conductor*%
%ADD18C,1.500000*%
%TD*%
G04 APERTURE END LIST*
D10*
%TO.P,J9,1,Pin_1*%
%TO.N,+12V*%
X113380000Y-73000000D03*
D11*
%TO.P,J9,2,Pin_2*%
%TO.N,GND*%
X115920000Y-73000000D03*
%TO.P,J9,3,Pin_3*%
%TO.N,TX*%
X118460000Y-73000000D03*
%TO.P,J9,4,Pin_4*%
%TO.N,RX*%
X121000000Y-73000000D03*
%TD*%
D10*
%TO.P,J8,1,Pin_1*%
%TO.N,VPP*%
X109000000Y-71000000D03*
D11*
%TO.P,J8,2,Pin_2*%
%TO.N,+5V*%
X109000000Y-73540000D03*
%TO.P,J8,3,Pin_3*%
%TO.N,GND*%
X109000000Y-76080000D03*
%TO.P,J8,4,Pin_4*%
%TO.N,PGD*%
X109000000Y-78620000D03*
%TO.P,J8,5,Pin_5*%
%TO.N,PGC*%
X109000000Y-81160000D03*
%TD*%
D10*
%TO.P,J7,1,Pin_1*%
%TO.N,+12V*%
X160000000Y-82000000D03*
D11*
%TO.P,J7,2,Pin_2*%
%TO.N,Net-(J7-Pin_2)*%
X157460000Y-82000000D03*
%TD*%
D10*
%TO.P,J6,1,Pin_1*%
%TO.N,+12V*%
X160000000Y-78000000D03*
D11*
%TO.P,J6,2,Pin_2*%
%TO.N,Net-(J6-Pin_2)*%
X157460000Y-78000000D03*
%TD*%
D10*
%TO.P,J5,1,Pin_1*%
%TO.N,+12V*%
X160000000Y-74000000D03*
D11*
%TO.P,J5,2,Pin_2*%
%TO.N,Net-(J5-Pin_2)*%
X157460000Y-74000000D03*
%TD*%
D10*
%TO.P,J4,1,Pin_1*%
%TO.N,+12V*%
X160000000Y-70000000D03*
D11*
%TO.P,J4,2,Pin_2*%
%TO.N,Net-(J4-Pin_2)*%
X157460000Y-70000000D03*
%TD*%
D10*
%TO.P,J3,1,Pin_1*%
%TO.N,+12V*%
X160000000Y-66000000D03*
D11*
%TO.P,J3,2,Pin_2*%
%TO.N,Net-(J3-Pin_2)*%
X157460000Y-66000000D03*
%TD*%
%TO.P,J2,2,Pin_2*%
%TO.N,Net-(J2-Pin_2)*%
X157460000Y-62000000D03*
D10*
%TO.P,J2,1,Pin_1*%
%TO.N,+12V*%
X160000000Y-62000000D03*
%TD*%
%TO.P,J1,1,Pin_1*%
%TO.N,+12V*%
X108900000Y-63225000D03*
D11*
%TO.P,J1,2,Pin_2*%
%TO.N,GND*%
X108900000Y-65765000D03*
%TD*%
D12*
%TO.P,C2,1*%
%TO.N,Net-(D1-K)*%
X120900000Y-67000000D03*
D13*
%TO.P,C2,2*%
%TO.N,GND*%
X120900000Y-69000000D03*
%TD*%
D14*
%TO.N,GND*%
X150500000Y-68750000D03*
%TO.N,+5V*%
X113041618Y-68311719D03*
X130750000Y-67000000D03*
%TO.N,Net-(D2-K)*%
X133250000Y-74250000D03*
X131250000Y-74000000D03*
%TO.N,VPP*%
X127000063Y-76007657D03*
%TO.N,TX*%
X130250000Y-71250000D03*
%TO.N,Net-(U1-TOCKI{slash}CMP2{slash}RA4)*%
X137000000Y-76750000D03*
X126991812Y-75008188D03*
%TO.N,Net-(U1-CMP1{slash}AN3{slash}RA3)*%
X138000000Y-77750000D03*
X129000000Y-77750000D03*
%TO.N,Net-(U1-Vref{slash}AN2{slash}RA2)*%
X138750000Y-75250000D03*
X127250000Y-72000000D03*
%TD*%
D15*
%TO.N,+5V*%
X130750000Y-67000000D02*
X129700000Y-65950000D01*
X129700000Y-65950000D02*
X115403337Y-65950000D01*
X115403337Y-65950000D02*
X113041618Y-68311719D01*
%TO.N,TX*%
X129900000Y-70900000D02*
X120560000Y-70900000D01*
D16*
%TO.N,GND*%
X150250000Y-69000000D02*
X150500000Y-68750000D01*
D15*
%TO.N,TX*%
X120560000Y-70900000D02*
X118460000Y-73000000D01*
X130250000Y-71250000D02*
X129900000Y-70900000D01*
D17*
%TO.N,GND*%
X120900000Y-69000000D02*
X150250000Y-69000000D01*
D18*
%TO.N,+12V*%
X113380000Y-73000000D02*
X113380000Y-70630000D01*
D15*
%TO.N,VPP*%
X110550000Y-72770000D02*
X110550000Y-71247056D01*
D18*
%TO.N,+12V*%
X111500000Y-68750000D02*
X111500000Y-63500000D01*
X111500000Y-63500000D02*
X111225000Y-63225000D01*
D15*
%TO.N,VPP*%
X113787657Y-76007657D02*
X110550000Y-72770000D01*
X110550000Y-71247056D02*
X110302944Y-71000000D01*
X110302944Y-71000000D02*
X109000000Y-71000000D01*
X127000063Y-76007657D02*
X113787657Y-76007657D01*
D18*
%TO.N,+12V*%
X113380000Y-70630000D02*
X111500000Y-68750000D01*
X111225000Y-63225000D02*
X108900000Y-63225000D01*
D15*
%TO.N,Net-(D2-K)*%
X133250000Y-74250000D02*
X131500000Y-74250000D01*
X131500000Y-74250000D02*
X131250000Y-74000000D01*
%TO.N,Net-(U1-TOCKI{slash}CMP2{slash}RA4)*%
X127460270Y-75008188D02*
X129202082Y-76750000D01*
X129202082Y-76750000D02*
X137000000Y-76750000D01*
X126991812Y-75008188D02*
X127460270Y-75008188D01*
%TO.N,Net-(U1-CMP1{slash}AN3{slash}RA3)*%
X129000000Y-77750000D02*
X138000000Y-77750000D01*
%TO.N,Net-(U1-Vref{slash}AN2{slash}RA2)*%
X130500000Y-75250000D02*
X138750000Y-75250000D01*
X127250000Y-72000000D02*
X130500000Y-75250000D01*
%TD*%
M02*
